#!OML:ASF H:\Not Pregnant\Project 1\Capture day 1\Session 1\non-pregnant.ASF
:FULLY-SPECIFIED
:DEGREES
364
root 12.8269 16.1902 13.8821 192.673 -24.5248 -180.379
lowerback -4.71898 1.57628 2.09221
upperback -7.96224 1.37398 -2.41032
thorax -5.51421 0.221479 -3.65924
lowerneck -1.5813 -2.2665 -27.3434
upperneck 9.70904 -7.28941 35.7767
head 5.45729 -4.20484 18.034
rclavicle -2.20154e-014 -1.59028e-014
rhumerus -41.331 -0.0945995 -72.8584
rradius 136.559
rwrist -7.89004
rhand -19.5065 -8.31082
rfingers 7.12502
rthumb 6.81626 -38.1811
lclavicle -2.20154e-014 -1.59028e-014
lhumerus -53.338 -24.1839 109.481
lradius 100.241
lwrist 51.3679
lhand -6.98564 -5.14605
lfingers 7.12502
lthumb 18.8846 23.9572
rfemur -23.608 8.95586 17.4744
rtibia 30.1539
rfoot -19.6732 13.8607
rtoes -11.7354
lfemur -23.472 6.51715 -12.9657
ltibia 50.777
lfoot -5.44391 8.98119
ltoes -23.3937
365
root 12.8244 16.1978 13.8287 192.622 -22.7042 -180.45
lowerback -4.80004 1.71589 2.10476
upperback -7.97233 1.54682 -2.40464
thorax -5.46485 0.302279 -3.65749
lowerneck -1.79675 -2.23876 -27.3119
upperneck 10.2316 -7.2586 35.3725
head 5.60991 -4.16785 17.8372
rclavicle -6.09275e-014 -1.90833e-014
rhumerus -41.4475 0.643732 -73.9252
rradius 136.331
rwrist -8.01634
rhand -19.407 -7.40556
rfingers 7.12502
rthumb 6.91226 -37.2727
lclavicle -6.09275e-014 -1.90833e-014
lhumerus -53.1604 -25.1211 109.331
lradius 99.3825
lwrist 51.7355
lhand -6.49727 -5.01394
lfingers 7.12502
lthumb 19.3543 24.0429
rfemur -23.5994 10.0255 17.2897
rtibia 30.1087
rfoot -19.5415 14.6611
rtoes -10.8391
lfemur -23.7028 6.09133 -13.3106
ltibia 51.8977
lfoot -6.14017 5.98045
ltoes -25.7477
366
root 12.8214 16.201 13.7773 192.564 -20.8453 -180.537
lowerback -4.84376 1.86625 2.103
upperback -7.97702 1.73565 -2.40614
thorax -5.42978 0.391968 -3.65557
lowerneck -2.04899 -2.19834 -27.2437
upperneck 10.747 -7.18898 34.9448
head 5.75228 -4.10734 17.6233
rclavicle -2.44505e-014 -2.5842e-014
rhumerus -41.568 1.35266 -74.9756
rradius 136.007
rwrist -8.25227
rhand -19.1692 -6.53987
rfingers 7.12502
rthumb 7.14185 -36.3994
lclavicle -2.44505e-014 -2.5842e-014
lhumerus -53.0046 -26.0911 109.153
lradius 98.4763
lwrist 51.8937
lhand -6.09783 -4.91557
lfingers 7.12502
lthumb 19.7383 24.1023
rfemur -23.6559 11.0878 17.0838
rtibia 30.1957
rfoot -19.4741 15.4552
rtoes -10.016
lfemur -23.9575 5.77616 -13.7386
ltibia 53.0188
lfoot -6.85313 3.26478
ltoes -27.7499
367
root 12.8176 16.2008 13.7279 192.498 -18.9562 -180.633
lowerback -4.8454 2.02171 2.0963
upperback -7.97303 1.93404 -2.40848
thorax -5.40866 0.487414 -3.65247
lowerneck -2.35275 -2.15023 -27.1515
upperneck 11.2498 -7.08359 34.5027
head 5.88863 -4.02418 17.4006
rclavicle -2.30093e-014 -5.56597e-015
rhumerus -41.6692 2.036 -75.9973
rradius 135.585
rwrist -8.57235
rhand -18.7812 -5.74704
rfingers 7.12502
rthumb 7.51631 -35.5935
lclavicle -2.30093e-014 -5.56597e-015
lhumerus -52.8753 -27.082 108.958
lradius 97.5443
lwrist 51.8742
lhand -5.82832 -4.85969
lfingers 7.12502
lthumb 19.9974 24.1313
rfemur -23.7729 12.1401 16.8613
rtibia 30.3932
rfoot -19.4259 16.2759
rtoes -9.0698
lfemur -24.2424 5.57844 -14.2337
ltibia 54.1423
lfoot -7.48147 0.849924
ltoes -29.5384
368
root 12.8133 16.1971 13.6811 192.414 -17.053 -180.71
lowerback -4.79708 2.17951 2.10818
upperback -7.96124 2.13908 -2.40404
thorax -5.40664 0.586219 -3.65403
lowerneck -2.6952 -2.09318 -27.0419
upperneck 11.7271 -6.94428 34.0613
head 6.01473 -3.92107 17.1781
rclavicle -3.01656e-014 -1.59028e-014
rhumerus -41.7428 2.68978 -76.9827
rradius 135.067
rwrist -8.96825
rhand -18.2423 -5.03796
rfingers 7.12502
rthumb 8.03652 -34.8652
lclavicle -3.01656e-014 -1.59028e-014
lhumerus -52.7705 -28.096 108.753
lradius 96.5983
lwrist 51.7242
lhand -5.71963 -4.82865
lfingers 7.12502
lthumb 20.1019 24.1514
rfemur -23.9361 13.1517 16.6588
rtibia 30.674
rfoot -19.3834 17.1444
rtoes -8.00255
lfemur -24.5665 5.48341 -14.7488
ltibia 55.2768
lfoot -7.97611 -1.28707
ltoes -30.9821
369
root 12.808 16.1908 13.6364 192.307 -15.1408 -180.766
lowerback -4.69602 2.33185 2.14106
upperback -7.93554 2.34178 -2.38716
thorax -5.41947 0.684585 -3.65613
lowerneck -3.07954 -2.02761 -26.9243
upperneck 12.1761 -6.77192 33.6297
head 6.13178 -3.79866 16.9629
rclavicle 5.30258e-014 0
rhumerus -41.773 3.32893 -77.9289
rradius 134.448
rwrist -9.43381
rhand -17.5774 -4.42719
rfingers 7.12502
rthumb 8.67813 -34.2288
lclavicle 5.30258e-014 0
lhumerus -52.7021 -29.1086 108.547
lradius 95.6829
lwrist 51.4778
lhand -5.81947 -4.78232
lfingers 7.12502
lthumb 20.0059 24.2078
rfemur -24.1196 14.141 16.4771
rtibia 31.0086
rfoot -19.3364 18.0473
rtoes -6.82229
lfemur -24.9191 5.48428 -15.2694
ltibia 56.4173
lfoot -8.34313 -3.17816
ltoes -32.1467
370
root 12.8011 16.182 13.5937 192.171 -13.233 -180.788
lowerback -4.54478 2.47847 2.21503
upperback -7.89083 2.54289 -2.35558
thorax -5.43945 0.782468 -3.66785
lowerneck -3.51251 -1.95851 -26.8077
upperneck 12.5945 -6.57344 33.2177
head 6.244 -3.66021 16.7617
rclavicle 2.45499e-014 -4.17448e-014
rhumerus -41.7535 3.95609 -78.8328
rradius 133.738
rwrist -9.96466
rhand -16.8072 -3.95356
rfingers 7.12502
rthumb 9.42133 -33.723
lclavicle 2.45499e-014 -4.17448e-014
lhumerus -52.6732 -30.118 108.347
lradius 94.8155
lwrist 51.1459
lhand -6.128 -4.7126
lfingers 7.12502
lthumb 19.7093 24.3082
rfemur -24.3047 15.0825 16.3335
rtibia 31.3763
rfoot -19.2746 19.0084
rtoes -5.51395
lfemur -25.2982 5.56361 -15.7706
ltibia 57.5657
lfoot -8.5741 -4.85139
ltoes -32.8994
371
root 12.7925 16.1711 13.5527 192.013 -11.3362 -180.779
lowerback -4.34555 2.61602 2.32724
upperback -7.83629 2.73667 -2.31153
thorax -5.47547 0.87615 -3.69039
lowerneck -3.97108 -1.87946 -26.6929
upperneck 12.9836 -6.35001 32.8356
head 6.34768 -3.50882 16.5796
rclavicle 1.05356e-014 -2.0276e-014
rhumerus -41.7062 4.58822 -79.7021
rradius 132.962
rwrist -10.5704
rhand -15.9589 -3.67258
rfingers 7.12502
rthumb 10.2398 -33.4033
lclavicle 1.05356e-014 -2.0276e-014
lhumerus -52.7074 -31.1046 108.157
lradius 94.0194
lwrist 50.7488
lhand -6.63482 -4.61455
lfingers 7.12502
lthumb 19.222 24.4555
rfemur -24.4876 15.9981 16.2214
rtibia 31.7616
rfoot -19.2116 19.9975
rtoes -4.15664
lfemur -25.7081 5.69942 -16.2454
ltibia 58.7168
lfoot -8.72324 -6.3068
ltoes -33.3715
372
root 12.7818 16.1569 13.5135 191.838 -9.45604 -180.728
lowerback -4.10473 2.74311 2.49182
upperback -7.76504 2.92249 -2.25421
thorax -5.51586 0.965274 -3.73066
lowerneck -4.46714 -1.79762 -26.587
upperneck 13.3428 -6.1112 32.4926
head 6.44911 -3.34845 16.4223
rclavicle 2.09718e-014 6.36111e-015
rhumerus -41.6151 5.23395 -80.5445
rradius 132.134
rwrist -11.2474
rhand -15.0741 -3.63291
rfingers 7.12502
rthumb 11.0933 -33.3197
lclavicle 2.09718e-014 6.36111e-015
lhumerus -52.7796 -32.0538 107.966
lradius 93.3028
lwrist 50.2889
lhand -7.28822 -4.44959
lfingers 7.12502
lthumb 18.5936 24.6818
rfemur -24.6683 16.878 16.1528
rtibia 32.1616
rfoot -19.1649 21.0089
rtoes -2.88191
lfemur -26.1569 5.88588 -16.6762
ltibia 59.8756
lfoot -8.8206 -7.53434
ltoes -33.6016
373
root 12.7691 16.1396 13.4756 191.656 -7.59138 -180.63
lowerback -3.84432 2.85427 2.71036
upperback -7.66729 3.09384 -2.18114
thorax -5.53808 1.04756 -3.78581
lowerneck -5.00495 -1.71579 -26.4868
upperneck 13.6519 -5.85555 32.1923
head 6.5425 -3.17684 16.2886
rclavicle 1.3418e-014 -1.98785e-016
rhumerus -41.454 5.9114 -81.3698
rradius 131.272
rwrist -12.0005
rhand -14.1939 -3.8982
rfingers 7.12502
rthumb 11.9421 -33.5376
lclavicle 1.3418e-014 -1.98785e-016
lhumerus -52.8619 -32.945 107.74
lradius 92.6765
lwrist 49.7642
lhand -8.016 -4.21185
lfingers 7.12502
lthumb 17.8934 24.985
rfemur -24.8569 17.7462 16.1274
rtibia 32.5722
rfoot -19.1029 22.0461
rtoes -1.57405
lfemur -26.6507 6.11804 -17.052
ltibia 61.0421
lfoot -8.88171 -8.51496
ltoes -33.6876
374
root 12.7554 16.1181 13.4397 191.458 -5.75579 -180.474
lowerback -3.53877 2.9458 2.98121
upperback -7.54847 3.24692 -2.09056
thorax -5.56291 1.12076 -3.85442
lowerneck -5.55613 -1.63263 -26.3854
upperneck 13.9022 -5.58821 31.9319
head 6.6206 -2.9982 16.1736
rclavicle 2.6165e-014 -1.21259e-014
rhumerus -41.2395 6.62511 -82.1896
rradius 130.397
rwrist -12.7988
rhand -13.3707 -4.4984
rfingers 7.12502
rthumb 12.7359 -34.09
lclavicle 2.6165e-014 -1.21259e-014
lhumerus -52.9667 -33.7734 107.487
lradius 92.1421
lwrist 49.1972
lhand -8.77214 -3.9302
lfingers 7.12502
lthumb 17.1658 25.3315
rfemur -25.0375 18.6124 16.1675
rtibia 32.9907
rfoot -19.0306 23.0737
rtoes -0.337112
lfemur -27.1839 6.3942 -17.3447
ltibia 62.2199
lfoot -8.97817 -9.24182
ltoes -33.8542
